<?xml version="1.0" encoding="utf-8"?>
<!-- Generator: Adobe Illustrator 22.1.0, SVG Export Plug-In . SVG Version: 6.00 Build 0)  -->
<svg version="1.1" id="Layer_1" xmlns="http://www.w3.org/2000/svg" xmlns:xlink="http://www.w3.org/1999/xlink" x="0px" y="0px"
	 viewBox="0 0 500 500" style="enable-background:new 0 0 500 500;" xml:space="preserve">
<style type="text/css">
	.st0{fill:#3273DC;}
	.st1{fill:#666666;}
	.st2{fill:#999999;}
</style>
<title>logo-HQ-Without-Border</title>
<path class="st0" d="M317,140L317,140l-57.8,110l-0.1,0.1l-0.1,0.1L201.7,140H162v193h37V205.5l50,95.5h20.5l47.5-90.8l2-3.8V140
	H317z"/>
<path class="st1" d="M372.5,308.5v25h75v-25H372.5z"/>
<path class="st0" d="M52,208v33l52.7,33l-0.4,0.2L52,305.5v34.8l98-58.1v-15.1L52,208z"/>
<polygon class="st1" points="150,267.2 150,274.2 104.3,274.2 104.7,274 52,241 52,208 "/>
<polygon class="st2" points="354,333 317,333 317,140 356.7,140 "/>
<polygon class="st1" points="317,140 317,210.2 269.5,301 259.2,301 259.2,250.1 259.2,250 "/>
</svg>
