<svg id="Layer_1" data-name="Layer 1" xmlns="http://www.w3.org/2000/svg" viewBox="0 0 397.5 206.11"><defs><style>.cls-1{fill:#3273dc;}.cls-1,.cls-2,.cls-3{stroke:#fff;stroke-miterlimit:10;stroke-width:2px;}.cls-2{fill:#666;}.cls-3{fill:#999;}</style></defs><title>logo-HQ-With-Border</title><path class="cls-1" d="M317,140h0L259.2,250l-.1.1-.1.1L201.7,140H162V333h37V205.5L249,301h20.5L317,210.2l2-3.8V140Z" transform="translate(-51 -135.95)"/><path class="cls-2" d="M372.5,308.5v25h75v-25Z" transform="translate(-51 -135.95)"/><path class="cls-1" d="M52,208v33l52.7,33-.4.2L52,305.5v34.8l98-58.1V267.1Z" transform="translate(-51 -135.95)"/><polygon class="cls-2" points="99 131.25 99 138.25 53.3 138.25 53.7 138.05 1 105.05 1 72.05 99 131.25"/><polygon class="cls-3" points="303 197.05 266 197.05 266 4.05 305.7 4.05 303 197.05"/><polygon class="cls-2" points="266 4.05 266 74.25 218.5 165.05 208.2 165.05 208.2 114.15 208.2 114.05 266 4.05"/></svg>