<svg xmlns="http://www.w3.org/2000/svg" width="87.669" height="43.834" viewBox="0 0 87.669 43.834">
  <path id="language-solid" d="M20.835,115.2c-.479-1.657-1.068-4.548-1.068-4.548H19.7s-.589,2.89-1.068,4.548l-1.521,5.137h5.219ZM84.381,96H46.026v43.834H84.381a3.28,3.28,0,0,0,3.288-3.288V99.288A3.28,3.28,0,0,0,84.381,96Zm-3.288,16.438a1.649,1.649,0,0,1-1.644,1.644H77.888a24.544,24.544,0,0,1-5.849,9.575,42.468,42.468,0,0,0,3.575,2.466,1.648,1.648,0,0,1,.562,2.219l-1.082,1.9a1.649,1.649,0,0,1-2.288.589,47.659,47.659,0,0,1-4.849-3.411,48.306,48.306,0,0,1-4.849,3.411,1.649,1.649,0,0,1-2.288-.589l-1.082-1.9a1.643,1.643,0,0,1,.575-2.219,39.082,39.082,0,0,0,3.575-2.466,31.786,31.786,0,0,1-2.877-3.52,1.639,1.639,0,0,1,.507-2.342l.89-.534,1-.589a1.657,1.657,0,0,1,2.192.466A26.121,26.121,0,0,0,67.984,120a20.953,20.953,0,0,0,4.109-5.918H56.437a1.649,1.649,0,0,1-1.644-1.644v-2.192a1.649,1.649,0,0,1,1.644-1.644H65.2v-2.192a1.649,1.649,0,0,1,1.644-1.644h2.192a1.649,1.649,0,0,1,1.644,1.644V108.6H79.45a1.649,1.649,0,0,1,1.644,1.644ZM0,99.288v37.259a3.28,3.28,0,0,0,3.288,3.288H41.643V96H3.288A3.28,3.28,0,0,0,0,99.288Zm8.068,29.6,7.876-23.164a1.638,1.638,0,0,1,1.562-1.11h4.452a1.669,1.669,0,0,1,1.562,1.11L31.4,128.889a1.648,1.648,0,0,1-1.562,2.178H26.7a1.644,1.644,0,0,1-1.575-1.178l-1.288-4.37H15.589l-1.247,4.356a1.656,1.656,0,0,1-1.575,1.192H9.63A1.654,1.654,0,0,1,8.068,128.889Z" transform="translate(0 -96)" fill="#fff"/>
</svg>
