<?xml version="1.0" encoding="utf-8"?>
<!-- Generator: Adobe Illustrator 22.1.0, SVG Export Plug-In . SVG Version: 6.00 Build 0)  -->
<svg version="1.1" id="Layer_1" xmlns="http://www.w3.org/2000/svg" xmlns:xlink="http://www.w3.org/1999/xlink" x="0px" y="0px"
	 viewBox="0 0 100 100" style="enable-background:new 0 0 100 100;" xml:space="preserve">
<style type="text/css">
	.st0{fill:none;}
	.st1{fill:none;stroke:#000000;stroke-miterlimit:10;}
	.st2{font-family:'ArialMT';}
	.st3{font-size:33px;}
</style>
<path d="M31,17.9c-7.2,0-13,5.8-13,13v39c0,7.2,5.8,13,13,13h39c7.2,0,13-5.8,13-13v-39c0-7.2-5.8-13-13-13C70,17.9,31,17.9,31,17.9
	z M31,19.9h39c6.1,0,11,4.9,11,11v39c0,6.1-4.9,11-11,11H31c-6.1,0-11-4.9-11-11v-39C20,24.9,24.9,19.9,31,19.9z M33.8,22.9
	c-6,0-10.8,4.9-10.8,10.8V67c0,6,4.9,10.8,10.8,10.8h33.3c6,0,10.8-4.9,10.8-10.8V48.4c0-0.3-0.2-0.5-0.5-0.5S77,48.1,77,48.4v18.7
	c0,5.4-4.4,9.8-9.8,9.8H33.8c-5.4,0-9.8-4.4-9.8-9.8V33.8c0-5.4,4.4-9.8,9.8-9.8h33.7c0.3,0,0.5-0.2,0.5-0.5S67.8,23,67.5,23H33.8
	V22.9z M77.5,36.9c-0.3,0-0.5,0.2-0.5,0.5v2c0,0.3,0.2,0.5,0.5,0.5s0.5-0.2,0.5-0.5v-2C78,37.1,77.8,36.9,77.5,36.9z M77.5,40.9
	c-0.3,0-0.5,0.2-0.5,0.5v4c0,0.3,0.2,0.5,0.5,0.5s0.5-0.2,0.5-0.5v-4C78,41.1,77.8,40.9,77.5,40.9z"/>
<rect x="31.4" y="36.9" class="st0" width="37.3" height="36.9"/>
<text transform="matrix(1 0 0 1 31.351 62.7414)" class="st1 st2 st3">Xd</text>
</svg>
